<?xml version="1.0" encoding="utf-8"?>
<!-- Generator: Adobe Illustrator 26.0.1, SVG Export Plug-In . SVG Version: 6.00 Build 0)  -->
<svg version="1.1" id="Layer_1" xmlns="http://www.w3.org/2000/svg" xmlns:xlink="http://www.w3.org/1999/xlink" x="0px" y="0px"
	 viewBox="0 0 5000 5000" style="enable-background:new 0 0 5000 5000;" xml:space="preserve">
<style type="text/css">
	.st0{fill:#FFFFFF;}
	.st1{fill:#E8AB42;}
	.st2{opacity:0.21;}
	.st3{clip-path:url(#SVGID_00000142161292341563785770000016825915954260167565_);fill:#E8AB42;}
</style>
<g id="wordmark">
	<path class="st0" d="M1639.8,2594.5l206-466.7h130l206.6,466.7h-137.3l-161.4-402h52l-161.2,402H1639.8z M1752.5,2503.1l34-96.6
		h227.9l34,96.6H1752.5z"/>
	<path class="st0" d="M2213.9,2723.7v-491.3h121.4v61.9l-1.4,120.1l6.6,119.3v189.9H2213.9z M2441.1,2600.4
		c-30.6,0-56.9-6.8-78.6-20.3s-38.3-34.2-49.6-61.8c-11.3-27.4-17-62.1-17-103.9c0-43.7,5.4-79.1,16.1-106.4
		c10.6-27.4,26.6-47.8,48.2-61.3s48.5-20.3,81-20.3c32.9,0,62.9,7.7,89.7,23.3c26.9,15.4,48.2,37.2,64,64.9s23.6,61,23.6,99.8
		c0,37.7-7.9,70.6-23.6,98.7c-15.8,27.9-37,49.5-64,64.6C2504,2592.9,2474.1,2600.4,2441.1,2600.4 M2414.5,2499.7
		c14.2,0,26.9-3.3,38.3-10.1c11.3-6.6,20.5-16.4,27.4-29.3c6.8-12.8,10.2-28.2,10.2-45.9c0-19.2-3.5-35.1-10.2-47.8
		c-6.9-12.6-16.1-22.4-27.4-29c-11.3-6.6-24.1-9.9-38.3-9.9c-14.2,0-27,3.3-38.3,9.9c-11.3,6.6-20.5,16.4-27.4,29
		c-6.8,12.6-10.2,28.5-10.2,47.8c0,17.7,3.5,33.1,10.2,45.9c6.9,12.9,16.1,22.7,27.4,29.3
		C2387.5,2496.4,2400.3,2499.7,2414.5,2499.7"/>
	<rect x="2677.1" y="2099.8" class="st0" width="126.7" height="494.7"/>
	<path class="st0" d="M2949.1,2193.1c-23.6,0-42.4-6.5-56.4-19.4c-13.9-12.9-21-28.8-21-48.1c0-19.1,7.1-35,21-47.6
		c14-12.6,32.8-19.1,56.4-19.1c23,0,41.8,6.1,55.9,18.1c14.2,12,21.3,27.3,21.3,46c0,20-6.9,36.6-21,50
		C2991.4,2186.3,2972.6,2193.1,2949.1,2193.1 M2885.8,2232.4h126.7v362h-126.7V2232.4z"/>
	<rect x="3085.8" y="2355.1" class="st0" width="194.6" height="98"/>
	<polygon class="st1" points="3433.1,2594.4 3433.1,2232.4 3289.8,2232.4 3289.8,2127.7 3707.8,2127.7 3707.8,2232.4 3565,2232.4 
		3565,2594.4 	"/>
	<path class="st1" d="M3904.4,2600.4c-43.2,0-80.5-8-112.4-24.3c-31.7-16.2-56.4-38.5-73.9-66.7c-17.7-28.4-26.3-60.2-26.3-95.7
		c0-36.6,8.5-68.9,25.5-97.1c17.2-28.2,40.7-50.3,70.8-66.4c29.9-15.9,64.1-24,102.3-24c35.6,0,67.9,7.4,97.1,22.4
		c29,14.8,52.3,36.2,70,64c17.5,27.7,26.3,61.6,26.3,101.7c0,4.4-0.3,9.6-0.6,15.3c-0.5,5.8-0.9,11.2-1.4,16.1h-285.9v-66.7h218.6
		l-48.1,18.6c0.5-15.9-2.5-30.1-9-42.2c-6.5-12.3-15.1-21.7-26.3-28.4c-11-6.8-24.1-10.1-39.2-10.1c-15.6,0-29.2,3.3-40.8,10.1
		c-11.5,6.6-20.2,16.1-26.3,28.4c-6,12.1-9,26.5-9,42.9v19.4c0,17.8,3.8,33.1,11,46c7.4,12.9,18,22.7,31.7,29.6
		c13.7,6.9,30.3,10.4,49.3,10.4c18.3,0,33.6-2.7,46-7.7c12.5-5,24.9-13.1,37.4-23.6l66,70c-17,18.6-38,32.9-63.4,43
		C3968.4,2595.3,3938.6,2600.4,3904.4,2600.4"/>
	<path class="st1" d="M4327.1,2600.4c-40.5,0-76.3-8-107.3-24c-31-16.1-55.6-38.1-73.3-66.4c-17.8-28.2-26.6-60.4-26.6-96.3
		c0-36.6,8.8-68.7,26.6-96.8c17.7-27.9,42.2-50.1,73.3-66.4c31-16.2,66.8-24.3,107.3-24.3c40.8,0,76.3,8.8,106.1,26.3
		c29.6,17.7,50.7,41.9,63.4,73l-98,50.7c-8.5-16.9-18.9-29.3-31.4-37c-12.5-7.7-26-11.7-40.7-11.7c-14.7,0-27.9,3.3-39.7,9.9
		c-11.8,6.8-21.3,16.2-28.4,28.7c-7.1,12.4-10.6,28.2-10.6,47.4c0,18.1,3.5,33.7,10.6,46.7c7.1,12.9,16.5,22.5,28.4,29.3
		c11.8,6.6,25.1,9.9,39.7,9.9c14.7,0,28.2-3.8,40.7-11.7c12.5-7.7,22.9-20,31.4-37l98,50.1c-12.6,31-33.7,55.5-63.4,73
		C4403.4,2591.6,4367.9,2600.4,4327.1,2600.4"/>
	<path class="st1" d="M4778.4,2226.4c28.1,0,53.4,5.8,76,17.3c22.7,11.5,40.7,29.2,53.7,52.6c13.1,23.6,19.7,54.1,19.7,91.4v206.6
		h-127.3v-186c0-25.8-5.4-44.6-15.8-56.3c-10.4-11.8-24.6-17.8-42.2-17.8c-13.9,0-26.3,3-37.4,9c-11.2,6.1-19.9,15.3-26,27.7
		c-6.3,12.4-9.3,28.8-9.3,49.3v174h-126.7v-494.7h126.7v236.1l-29.5-30.1c13.9-25.7,32.8-45.4,56.7-58.9
		S4748.2,2226.4,4778.4,2226.4"/>
	<polygon class="st0" points="4826.2,2143.9 4826.2,2110.1 4812.8,2110.1 4812.8,2100.5 4851.8,2100.5 4851.8,2110.1 4838.5,2110.1 
		4838.5,2143.9 	"/>
	<polygon class="st0" points="4856.4,2143.9 4856.4,2100.5 4866.5,2100.5 4884.5,2130 4879.1,2130 4896.6,2100.5 4906.7,2100.5 
		4906.9,2143.9 4895.5,2143.9 4895.4,2117.7 4897.4,2117.7 4884.3,2139.6 4878.8,2139.6 4865.4,2117.7 4867.8,2117.7 4867.8,2143.9 
			"/>
</g>
<g id="gru">
	<path class="st1" d="M1514.7,2115l-127-81.2c-16.4-10.4-35.5-15.9-54.8-15.9H427.4c-2.8,0-5.2-2.4-5.2-5.2
		c0-41.3-33.6-74.7-74.7-74.7h-72.7c-4.7,0-6.9-6-3.5-9.1l204.4-182c7.9-6.9,20.3-1.6,20.5,9l3.6,197h0.3c0.6,10.2,9,18.4,19.4,18.4
		c10.6,0,19.2-8.7,19.5-19.2h0.2l-3.2-182.5c-0.2-7.1,9-10.2,13.2-4.6l145.2,194.2l0.2-0.2c3.6,4.1,8.8,6.9,14.7,6.9
		c11,0,19.9-9,19.9-19.9c0-3.9-1.4-7.4-3.3-10.4l0.3-0.3l-128.4-171.6c-4.3-5.8,2.2-13.6,8.7-10.4l417.5,207.7
		c2.4,1.1,5,1.7,7.9,1.7c11,0,19.9-8.8,19.9-19.9c0-7.2-4.1-13.4-9.9-16.9v-0.2l-1.3-0.6c-0.5-0.3-0.9-0.5-1.4-0.8l-508.3-253
		c-11.5-5.7-25.4-3.8-35,4.7l-292.5,260.5c-0.9,0.8-2.2,1.3-3.5,1.3H147c-41.3,0-74.7,33.4-74.7,74.7v194.2
		c0,41.1,33.4,74.7,74.7,74.7h200.5c41.1,0,74.7-33.6,74.7-74.7c0-3,2.4-5.2,5.2-5.2h1062.1
		C1536.4,2201.7,1554.4,2140.2,1514.7,2115 M382.6,2206.9c0,19.4-15.8,35.1-35.1,35.1H147c-19.5,0-35.3-15.8-35.3-35.1v-194.2
		c0-19.5,15.8-35.1,35.3-35.1h200.5c19.4,0,35.1,15.6,35.1,35.1V2206.9z M1497.4,2162.1h-1070c-2.8,0-5.2-2.4-5.2-5.2v-94.2
		c0-3,2.4-5.2,5.2-5.2H1321c19.7,0,38.8,5.5,55.3,16.1l123.9,79C1504.6,2155.3,1502.6,2162.1,1497.4,2162.1"/>
	<path class="st1" d="M1124.4,2460.8c-5,10.9-3.3,23.3,4.4,32.6l54.1,65.2c6.9,8.4,18,13.2,29.8,13.2h33.3l0.2,40l13.2,4.6
		c42.9,14.8,64.1,38,59.9,65.1c-3.9,24.4-27.7,46.3-51.1,46.8c-22.9-0.5-42.7-23.6-51.2-65.9l-0.3,0.2c-0.9-10.2-9.1-18.3-19.5-18.3
		c-11,0-19.9,9-19.9,19.9c0,2.2,0.6,4.1,1.1,6h-0.2c17.5,87.5,67.1,97.6,89.2,97.6c0.6,0,1.1,0,1.6,0c42.4-0.8,82.4-36.7,89.2-80.1
		c2.7-16.7,4.6-71.2-72.7-103.5v-12.3h35.9c12.1,0,23.5-5.2,30.4-14l51.1-65.2c7.4-9.5,8.8-21.4,3.6-32.2
		c-5.8-12-19.1-19.5-33.7-19.7l38.3-172.3c0-0.2,0-0.3,0.2-0.5l0.3-2c0.5-1.6,1.1-3.3,1.1-5.2c0-11-8.8-19.9-19.9-19.9
		c-9.8,0-17.7,7.2-19.2,16.7l-0.5-0.2l-32.8,147.2c-4.6,21.1-23.3,36.1-45.1,36.1h-52.8c-21.7,0-40.5-15-45.1-36.1l-32.8-147.2
		l-0.3,0.2c-1.3-9.8-9.3-17.5-19.4-17.5c-11,0-19.9,8.8-19.9,19.9c0,2.2,0.6,4.1,1.3,6h-0.2l38.8,174.8h-6.3
		C1143.6,2440.8,1130.2,2448.6,1124.4,2460.8 M1365.4,2476.5l-29.6,38.1c-9.5,13.1-15.1,15.9-36.1,18l-64.3,0.6
		c-14,0.2-27.1-6-36.1-16.7l-30.1-36.6L1365.4,2476.5z"/>
	<path class="st1" d="M1487.8,3075c-0.2,0-0.2,0-0.2,0h-660c-7.3,0-13.1-5.8-13.1-13.1v-800.2h-0.2c0-0.3,0.2-0.6,0.2-0.9
		c0-10.9-8.8-19.7-19.7-19.7c-10.7,0-19.5,8.8-19.5,19.7c0,0.3,0.2,0.6,0.2,0.9h-0.5v154c0,12.1-15,17.7-22.9,8.7l-71.4-81.5
		c-4.4-5-4.4-12.3,0-17.3l44.4-50.7l-0.2-0.2c3.6-3.6,5.8-8.5,5.8-13.9c0-10.9-8.8-19.7-19.7-19.7c-6.3,0-11.7,3.2-15.3,7.9
		l-0.3-0.3l-38.9,44.4c-5.2,6-14.3,6-19.5,0l-38.9-44.4l-0.3,0.3c-3.6-4.7-9-7.9-15.3-7.9c-10.9,0-19.7,8.8-19.7,19.7
		c0,5.4,2.2,10.2,5.8,13.9l-0.2,0.2l44.6,50.9c4.3,4.9,4.3,12.3,0,17.2l-71.6,81.5c-7.9,9.1-22.9,3.5-22.9-8.7v-154h-0.3
		c0-0.3,0.2-0.6,0.2-0.9c0-10.9-8.8-19.7-19.5-19.7c-10.9,0-19.7,8.8-19.7,19.7c0,0.3,0.2,0.6,0.2,0.9h-0.2v800.2
		c0,7.2-6,13.1-13.1,13.1h-373c-0.5,0-0.8-0.2-1.1-0.2c-11,0-19.9,8.8-19.9,19.9c0,10.9,8.8,19.7,19.9,19.7h1395.6c0,0,0,0,0.2,0
		c10.7,0,19.4-8.8,19.4-19.7S1498.5,3075,1487.8,3075 M548.6,2476.3l88.4-100.9c5.2-5.8,14.3-5.8,19.5,0l88.4,101
		c4.4,4.9,4.4,12.3,0,17.2l-88.3,101c-5.2,6-14.5,6-19.7,0l-88.4-101C544.3,2488.6,544.3,2481.3,548.6,2476.3 M745.4,2778.6
		c4.3,4.9,4.3,12.1,0.2,17L656.9,2901c-5.4,6.1-14.8,6.1-20,0l-88.7-105.4c-4.3-4.9-4.1-12.1,0.2-17l88.7-101.5c5.2-6,14.5-6,19.7,0
		L745.4,2778.6z M518.6,2554.1c0-12,15-17.7,22.9-8.5l71.6,81.6c4.3,4.9,4.3,12.3,0,17.2l-71.6,81.8c-7.9,9-22.9,3.5-22.9-8.7
		V2554.1z M518.6,3029.2v-171.3c0-12.1,15.3-17.8,23.2-8.5l72,85.7c4.1,4.9,4.1,12,0,16.9l-72,85.7
		C533.9,3047,518.6,3041.4,518.6,3029.2 M703.7,3075H589.9c-11,0-17-13.1-9.9-21.4l56.9-67.6c5.2-6.1,14.7-6.1,19.9,0l56.9,67.6
		C720.9,3061.9,714.7,3075,703.7,3075 M774.9,3029.2c0,12.3-15.3,17.8-23,8.5l-72.2-85.7c-4.1-4.9-4.1-12,0-16.9l72.2-85.6
		c7.7-9.5,23-3.8,23,8.4V3029.2z M774.9,2717.6c0,12.1-15,17.7-22.9,8.7l-71.6-81.8c-4.3-4.9-4.3-12.3,0-17.2l71.6-81.6
		c7.9-9.1,22.9-3.5,22.9,8.5V2717.6z"/>
	<g class="st2">
		<g>
			<defs>
				<rect id="SVGID_1_" x="74.8" y="3075" width="1986" height="256.7"/>
			</defs>
			<clipPath id="SVGID_00000050644291410176202270000013405836662969453724_">
				<use xlink:href="#SVGID_1_"  style="overflow:visible;"/>
			</clipPath>
			<path style="clip-path:url(#SVGID_00000050644291410176202270000013405836662969453724_);fill:#E8AB42;" d="M2060.8,3298.1
				c-4.6,47.9-452.8,44.3-1001.3-8c-548.5-52.3-989.3-133.5-984.7-181.4c4.6-47.9,452.8-44.3,1001.3,8
				C1624.5,3169,2065.4,3250.2,2060.8,3298.1"/>
		</g>
	</g>
</g>
</svg>
