<svg id="Layer_1" data-name="Layer 1" xmlns="http://www.w3.org/2000/svg" xmlns:xlink="http://www.w3.org/1999/xlink" viewBox="0 0 4855.7 1663.51"><defs><style>.cls-1{fill:none;}.cls-2{fill:#e8ab42;}.cls-3{fill:#222055;}.cls-4{opacity:0.21;}.cls-5{clip-path:url(#clip-path);}</style><clipPath id="clip-path" transform="translate(-72.15 -1668.26)"><rect class="cls-1" x="74.78" y="3075" width="1986.04" height="256.74"/></clipPath></defs><path class="cls-2" d="M1514.69,2115l-127-81.16a102.4,102.4,0,0,0-54.85-15.92H427.37a5.25,5.25,0,0,1-5.2-5.2,74.76,74.76,0,0,0-74.7-74.71H274.81a5.27,5.27,0,0,1-3.46-9.14l204.41-182a12.31,12.31,0,0,1,20.49,9l3.62,197h.32a19.51,19.51,0,0,0,19.38,18.44A19.8,19.8,0,0,0,539.12,1952h.15l-3.15-182.51a7.38,7.38,0,0,1,13.24-4.57l145.15,194.17.16-.16a19.57,19.57,0,0,0,34.52-12.92,19.39,19.39,0,0,0-3.31-10.4l.31-.32L597.75,1763.7c-4.26-5.83,2.2-13.55,8.66-10.4L1023.91,1961a18.5,18.5,0,0,0,7.88,1.74,19.65,19.65,0,0,0,9.93-36.73v-.15l-1.26-.63c-.48-.32-1-.48-1.42-.79l-508.28-253a31.73,31.73,0,0,0-35,4.73L203.26,1936.75a5.49,5.49,0,0,1-3.47,1.26H147a74.66,74.66,0,0,0-74.71,74.71v194.17a74.76,74.76,0,0,0,74.71,74.7H347.47a74.86,74.86,0,0,0,74.7-74.7,5.15,5.15,0,0,1,5.2-5.21h1062.1c47,0,64.94-61.46,25.22-86.68M382.61,2206.89A35.17,35.17,0,0,1,347.47,2242H147a35.21,35.21,0,0,1-35.31-35.14V2012.72A35.11,35.11,0,0,1,147,1977.57H347.47a35.07,35.07,0,0,1,35.14,35.15Zm1114.74-44.77h-1070a5.25,5.25,0,0,1-5.2-5.2v-94.24a5.15,5.15,0,0,1,5.2-5.2H1321a102.45,102.45,0,0,1,55.32,16.07l123.88,79a5.22,5.22,0,0,1-2.84,9.61" transform="translate(-72.15 -1668.26)"/><path class="cls-2" d="M1124.41,2460.77a30.5,30.5,0,0,0,4.41,32.62l54.06,65.25c6.94,8.36,18,13.24,29.79,13.24h33.25l.16,40,13.24,4.57c42.87,14.82,64.15,38,59.89,65.09-3.94,24.43-27.74,46.34-51.06,46.81-22.86-.47-42.71-23.64-51.22-65.88l-.32.16c-.95-10.24-9.14-18.28-19.54-18.28a19.88,19.88,0,0,0-19.86,19.86,23.94,23.94,0,0,0,1.1,6h-.16c17.5,87.47,67.14,97.56,89.21,97.56h1.57c42.4-.79,82.43-36.73,89.21-80.07,2.68-16.7,4.57-71.24-72.66-103.54v-12.3h35.94c12.13,0,23.48-5.2,30.41-14l51.07-65.25a29.89,29.89,0,0,0,3.62-32.15c-5.83-12-19.07-19.55-33.72-19.7l38.29-172.27a.58.58,0,0,1,.16-.47l.32-2.05a18,18,0,0,0,1.1-5.2,19.66,19.66,0,0,0-39.09-3.15l-.47-.16-32.78,147.2a45.94,45.94,0,0,1-45.08,36.1h-52.79a45.94,45.94,0,0,1-45.08-36.1l-32.78-147.2-.31.16A19.69,19.69,0,0,0,1125,2260a18.42,18.42,0,0,0,1.26,6h-.15l38.77,174.79h-6.31c-15,0-28.37,7.88-34.2,20m241,15.76-29.63,38.14c-9.46,13.08-15.13,15.92-36.09,18l-64.3.63a46.24,46.24,0,0,1-36.1-16.71l-30.1-36.56Z" transform="translate(-72.15 -1668.26)"/><path class="cls-2" d="M1487.75,3075H827.55a13,13,0,0,1-13.08-13.08V2261.78h-.16c0-.32.16-.63.16-1a19.63,19.63,0,1,0-39.25,0c0,.32.16.63.16,1h-.47v154c0,12.13-15,17.65-22.85,8.67l-71.4-81.49a13,13,0,0,1,0-17.33l44.45-50.75-.16-.16a19.62,19.62,0,0,0-13.87-33.57,19.17,19.17,0,0,0-15.29,7.88l-.31-.31-38.93,44.44a12.88,12.88,0,0,1-19.55,0l-38.92-44.44-.32.31a19.16,19.16,0,0,0-15.29-7.88,19.62,19.62,0,0,0-13.87,33.57l-.15.16,44.6,50.91a13.15,13.15,0,0,1,0,17.17l-71.55,81.49c-7.88,9.14-22.86,3.46-22.86-8.67v-154h-.31c0-.32.16-.63.16-1a19.63,19.63,0,1,0-39.25,0c0,.32.16.63.16,1h-.16v800.16A13.15,13.15,0,0,1,466.16,3075h-373c-.47,0-.79-.16-1.1-.16a19.78,19.78,0,1,0,0,39.56H1487.75a19.7,19.7,0,0,0,0-39.4M548.59,2476.28,637,2375.41a13.11,13.11,0,0,1,19.55,0l88.41,101a12.77,12.77,0,0,1,0,17.17l-88.25,101a13.06,13.06,0,0,1-19.71,0l-88.41-101a13.35,13.35,0,0,1,0-17.33m196.85,302.28a13.14,13.14,0,0,1,.15,17L656.86,2901a13.16,13.16,0,0,1-20,0l-88.73-105.43a13,13,0,0,1,.15-17L637,2677.07a13.06,13.06,0,0,1,19.71,0Zm-226.8-224.42c0-12,15-17.66,22.86-8.52l71.55,81.64a13.17,13.17,0,0,1,0,17.18l-71.55,81.8c-7.88,9-22.86,3.47-22.86-8.67Zm0,475V2857.84c0-12.14,15.29-17.81,23.17-8.51l72,85.74a13.12,13.12,0,0,1,0,16.86l-72,85.74c-7.88,9.29-23.17,3.78-23.17-8.51m185,45.86H589.88c-11,0-17-13.08-9.93-21.44l56.9-67.61a13,13,0,0,1,19.86,0l56.89,67.61c7.25,8.36,1.1,21.44-9.93,21.44m71.24-45.86c0,12.29-15.29,17.8-23,8.51l-72.18-85.74a13.09,13.09,0,0,1,0-16.86l72.18-85.58c7.72-9.46,23-3.79,23,8.35Zm0-311.59c0,12.14-15,17.65-22.85,8.67l-71.56-81.8a13.17,13.17,0,0,1,0-17.18l71.56-81.64c7.88-9.14,22.85-3.46,22.85,8.52Z" transform="translate(-72.15 -1668.26)"/><path class="cls-3" d="M1639.79,2594.47l206-466.67h130l206.62,466.67H2045.15l-161.38-402h52l-161.23,402Zm112.69-91.41,34-96.62h227.9l34,96.62Z" transform="translate(-72.15 -1668.26)"/><path class="cls-3" d="M2213.85,2723.69V2232.43h121.36v61.94l-1.42,120.1,6.62,119.3v189.92Zm227.27-123.25c-30.58,0-56.9-6.78-78.65-20.33s-38.29-34.2-49.64-61.78q-17-41.14-17-103.86,0-65.49,16.07-106.39c10.56-27.42,26.64-47.75,48.23-61.31s48.54-20.33,81-20.33q49.41,0,89.68,23.33c26.95,15.44,48.22,37.19,64,64.93s23.64,61,23.64,99.77q0,56.49-23.64,98.66-23.64,41.84-64,64.61t-89.68,22.7m-26.64-100.71c14.19,0,26.95-3.31,38.3-10.09q17-9.93,27.43-29.31c6.77-12.77,10.24-28.21,10.24-45.86,0-19.23-3.47-35.15-10.24-47.76-6.94-12.61-16.08-22.38-27.43-29s-24.11-9.93-38.3-9.93-26.95,3.31-38.29,9.93-20.49,16.39-27.43,29c-6.77,12.61-10.24,28.53-10.24,47.76,0,17.65,3.47,33.09,10.24,45.86q10.41,19.38,27.43,29.31c11.34,6.78,24.11,10.09,38.29,10.09" transform="translate(-72.15 -1668.26)"/><rect class="cls-3" x="2604.97" y="431.55" width="126.71" height="494.72"/><path class="cls-3" d="M2949.14,2193.11c-23.64,0-42.39-6.46-56.42-19.39-13.87-12.92-21-28.84-21-48.06s7.09-35,21-47.6c14-12.61,32.78-19.07,56.42-19.07,23,0,41.77,6.14,56,18.12s21.28,27.27,21.28,46c0,20-6.94,36.57-21,50-14,13.24-32.79,20-56.27,20m-63.35,39.24H3012.5v362H2885.79Z" transform="translate(-72.15 -1668.26)"/><rect class="cls-3" x="3013.64" y="686.87" width="194.64" height="98.03"/><polygon class="cls-2" points="3360.95 926.14 3360.95 564.13 3217.69 564.13 3217.69 459.48 3635.65 459.48 3635.65 564.13 3492.86 564.13 3492.86 926.14 3360.95 926.14"/><path class="cls-2" d="M3904.45,2600.39c-43.19,0-80.54-8-112.38-24.27-31.67-16.23-56.42-38.45-73.91-66.67-17.65-28.36-26.32-60.2-26.32-95.66q0-54.86,25.53-97.09c17.18-28.21,40.66-50.27,70.76-66.35,29.95-15.92,64.15-23.95,102.29-23.95q53.43,0,97.08,22.38a177.52,177.52,0,0,1,70,64q26.23,41.61,26.32,101.66c0,4.41-.32,9.61-.63,15.29q-.71,8.74-1.42,16.07H3795.86v-66.67h218.59l-48.06,18.6c.47-15.91-2.53-30.1-9-42.23-6.46-12.3-15.13-21.75-26.32-28.37-11-6.78-24.11-10.09-39.24-10.09-15.6,0-29.16,3.31-40.82,10.09-11.51,6.62-20.17,16.07-26.32,28.37-6,12.13-9,26.47-9,42.86v19.39c0,17.81,3.78,33.1,11,46,7.4,12.92,18,22.69,31.68,29.63s30.26,10.4,49.33,10.4c18.28,0,33.57-2.68,46-7.72s24.9-13.08,37.35-23.64l66,70c-17,18.6-38,32.94-63.36,43q-38.07,14.89-89.36,15" transform="translate(-72.15 -1668.26)"/><path class="cls-2" d="M4327.09,2600.39q-60.75,0-107.33-23.95c-31-16.08-55.63-38.14-73.28-66.36q-26.71-42.32-26.64-96.29c0-36.57,8.83-68.72,26.64-96.77,17.65-27.9,42.24-50.12,73.28-66.35s66.83-24.27,107.33-24.27c40.82,0,76.28,8.82,106.07,26.32q44.44,26.47,63.36,73l-98,50.75c-8.51-16.87-18.91-29.32-31.36-37a75.83,75.83,0,0,0-40.67-11.66q-22,0-39.71,9.92a75.2,75.2,0,0,0-28.37,28.69c-7.09,12.45-10.56,28.21-10.56,47.44,0,18.12,3.47,33.73,10.56,46.65a73.67,73.67,0,0,0,28.37,29.31q17.73,9.93,39.71,9.93a74.47,74.47,0,0,0,40.67-11.66c12.45-7.72,22.85-20,31.36-37l98,50.12c-12.61,31.05-33.73,55.48-63.36,73-29.79,17.5-65.25,26.32-106.07,26.32" transform="translate(-72.15 -1668.26)"/><path class="cls-2" d="M4778.44,2226.38c28.05,0,53.43,5.83,76,17.34,22.69,11.5,40.66,29.15,53.74,52.64s19.7,54.06,19.7,91.41v206.62H4800.51v-186c0-25.84-5.36-44.6-15.76-56.26-10.41-11.82-24.59-17.81-42.24-17.81q-20.81,0-37.35,9c-11.19,6.15-19.86,15.29-26,27.74s-9.3,28.84-9.3,49.33v174H4543.14V2099.67h126.71v236.09l-29.47-30.1q20.8-38.53,56.74-58.95t81.32-20.33" transform="translate(-72.15 -1668.26)"/><polygon class="cls-3" points="4754.1 475.6 4754.1 441.87 4740.7 441.87 4740.7 432.26 4779.63 432.26 4779.63 441.87 4766.39 441.87 4766.39 475.6 4754.1 475.6"/><polygon class="cls-3" points="4784.28 475.6 4784.28 432.26 4794.36 432.26 4812.33 461.73 4806.97 461.73 4824.47 432.26 4834.55 432.26 4834.71 475.6 4823.36 475.6 4823.2 449.44 4825.25 449.44 4812.17 471.35 4806.66 471.35 4793.26 449.44 4795.62 449.44 4795.62 475.6 4784.28 475.6"/><g class="cls-4"><g class="cls-5"><path class="cls-2" d="M2060.79,3298.08c-4.57,47.91-452.8,44.28-1001.26-8S70.24,3156.55,74.81,3108.64s452.8-44.29,1001.26,8,989.29,133.5,984.72,181.41" transform="translate(-72.15 -1668.26)"/></g></g></svg>