<?xml version="1.0" encoding="utf-8"?>
<!-- Generator: Adobe Illustrator 26.0.1, SVG Export Plug-In . SVG Version: 6.00 Build 0)  -->
<svg version="1.1" id="Layer_1" xmlns="http://www.w3.org/2000/svg" xmlns:xlink="http://www.w3.org/1999/xlink" x="0px" y="0px"
	 viewBox="0 0 5000 5000" style="enable-background:new 0 0 5000 5000;" xml:space="preserve">
<style type="text/css">
	.st0{display:none;}
	.st1{display:inline;fill:#222055;}
	.st2{display:inline;fill:#E8AB42;}
	.st3{fill:#E8AB42;}
	.st4{opacity:0.21;}
	.st5{clip-path:url(#SVGID_00000122689571332123300840000000155937297196592262_);fill:#E8AB42;}
</style>
<g id="wordmark" class="st0">
	<path class="st1" d="M1639.8,2594.5l206-466.7h130l206.6,466.7h-137.3l-161.4-402h52l-161.2,402H1639.8z M1752.5,2503.1l34-96.6
		h227.9l34,96.6H1752.5z"/>
	<path class="st1" d="M2213.9,2723.7v-491.3h121.4v61.9l-1.4,120.1l6.6,119.3v189.9H2213.9z M2441.1,2600.4
		c-30.6,0-56.9-6.8-78.6-20.3s-38.3-34.2-49.6-61.8c-11.3-27.4-17-62.1-17-103.9c0-43.7,5.4-79.1,16.1-106.4
		c10.6-27.4,26.6-47.8,48.2-61.3s48.5-20.3,81-20.3c32.9,0,62.9,7.7,89.7,23.3c26.9,15.4,48.2,37.2,64,64.9s23.6,61,23.6,99.8
		c0,37.7-7.9,70.6-23.6,98.7c-15.8,27.9-37,49.5-64,64.6C2504,2592.9,2474.1,2600.4,2441.1,2600.4 M2414.5,2499.7
		c14.2,0,26.9-3.3,38.3-10.1c11.3-6.6,20.5-16.4,27.4-29.3c6.8-12.8,10.2-28.2,10.2-45.9c0-19.2-3.5-35.1-10.2-47.8
		c-6.9-12.6-16.1-22.4-27.4-29c-11.3-6.6-24.1-9.9-38.3-9.9c-14.2,0-27,3.3-38.3,9.9c-11.3,6.6-20.5,16.4-27.4,29
		c-6.8,12.6-10.2,28.5-10.2,47.8c0,17.7,3.5,33.1,10.2,45.9c6.9,12.9,16.1,22.7,27.4,29.3
		C2387.5,2496.4,2400.3,2499.7,2414.5,2499.7"/>
	<rect x="2677.1" y="2099.8" class="st1" width="126.7" height="494.7"/>
	<path class="st1" d="M2949.1,2193.1c-23.6,0-42.4-6.5-56.4-19.4c-13.9-12.9-21-28.8-21-48.1c0-19.1,7.1-35,21-47.6
		c14-12.6,32.8-19.1,56.4-19.1c23,0,41.8,6.1,55.9,18.1c14.2,12,21.3,27.3,21.3,46c0,20-6.9,36.6-21,50
		C2991.4,2186.3,2972.6,2193.1,2949.1,2193.1 M2885.8,2232.4h126.7v362h-126.7V2232.4z"/>
	<rect x="3085.8" y="2355.1" class="st1" width="194.6" height="98"/>
	<polygon class="st2" points="3433.1,2594.4 3433.1,2232.4 3289.8,2232.4 3289.8,2127.7 3707.8,2127.7 3707.8,2232.4 3565,2232.4 
		3565,2594.4 	"/>
	<path class="st2" d="M3904.4,2600.4c-43.2,0-80.5-8-112.4-24.3c-31.7-16.2-56.4-38.5-73.9-66.7c-17.7-28.4-26.3-60.2-26.3-95.7
		c0-36.6,8.5-68.9,25.5-97.1c17.2-28.2,40.7-50.3,70.8-66.4c29.9-15.9,64.1-24,102.3-24c35.6,0,67.9,7.4,97.1,22.4
		c29,14.8,52.3,36.2,70,64c17.5,27.7,26.3,61.6,26.3,101.7c0,4.4-0.3,9.6-0.6,15.3c-0.5,5.8-0.9,11.2-1.4,16.1h-285.9v-66.7h218.6
		l-48.1,18.6c0.5-15.9-2.5-30.1-9-42.2c-6.5-12.3-15.1-21.7-26.3-28.4c-11-6.8-24.1-10.1-39.2-10.1c-15.6,0-29.2,3.3-40.8,10.1
		c-11.5,6.6-20.2,16.1-26.3,28.4c-6,12.1-9,26.5-9,42.9v19.4c0,17.8,3.8,33.1,11,46c7.4,12.9,18,22.7,31.7,29.6
		c13.7,6.9,30.3,10.4,49.3,10.4c18.3,0,33.6-2.7,46-7.7c12.5-5,24.9-13.1,37.4-23.6l66,70c-17,18.6-38,32.9-63.4,43
		C3968.4,2595.3,3938.6,2600.4,3904.4,2600.4"/>
	<path class="st2" d="M4327.1,2600.4c-40.5,0-76.3-8-107.3-24c-31-16.1-55.6-38.1-73.3-66.4c-17.8-28.2-26.6-60.4-26.6-96.3
		c0-36.6,8.8-68.7,26.6-96.8c17.7-27.9,42.2-50.1,73.3-66.4c31-16.2,66.8-24.3,107.3-24.3c40.8,0,76.3,8.8,106.1,26.3
		c29.6,17.7,50.7,41.9,63.4,73l-98,50.7c-8.5-16.9-18.9-29.3-31.4-37c-12.5-7.7-26-11.7-40.7-11.7c-14.7,0-27.9,3.3-39.7,9.9
		c-11.8,6.8-21.3,16.2-28.4,28.7c-7.1,12.4-10.6,28.2-10.6,47.4c0,18.1,3.5,33.7,10.6,46.7c7.1,12.9,16.5,22.5,28.4,29.3
		c11.8,6.6,25.1,9.9,39.7,9.9c14.7,0,28.2-3.8,40.7-11.7c12.5-7.7,22.9-20,31.4-37l98,50.1c-12.6,31-33.7,55.5-63.4,73
		C4403.4,2591.6,4367.9,2600.4,4327.1,2600.4"/>
	<path class="st2" d="M4778.4,2226.4c28.1,0,53.4,5.8,76,17.3c22.7,11.5,40.7,29.2,53.7,52.6c13.1,23.6,19.7,54.1,19.7,91.4v206.6
		h-127.3v-186c0-25.8-5.4-44.6-15.8-56.3c-10.4-11.8-24.6-17.8-42.2-17.8c-13.9,0-26.3,3-37.4,9c-11.2,6.1-19.9,15.3-26,27.7
		c-6.3,12.4-9.3,28.8-9.3,49.3v174h-126.7v-494.7h126.7v236.1l-29.5-30.1c13.9-25.7,32.8-45.4,56.7-58.9
		S4748.2,2226.4,4778.4,2226.4"/>
	<polygon class="st1" points="4826.2,2143.9 4826.2,2110.1 4812.8,2110.1 4812.8,2100.5 4851.8,2100.5 4851.8,2110.1 4838.5,2110.1 
		4838.5,2143.9 	"/>
	<polygon class="st1" points="4856.4,2143.9 4856.4,2100.5 4866.5,2100.5 4884.5,2130 4879.1,2130 4896.6,2100.5 4906.7,2100.5 
		4906.9,2143.9 4895.5,2143.9 4895.4,2117.7 4897.4,2117.7 4884.3,2139.6 4878.8,2139.6 4865.4,2117.7 4867.8,2117.7 4867.8,2143.9 
			"/>
</g>
<g>
	<path class="st3" d="M3709.4,1802.4l-268.1-171.3c-34.6-22-74.8-33.6-115.7-33.6H1415c-6,0-11-5-11-11
		c0-87.1-70.8-157.6-157.6-157.6h-153.3c-10,0-14.6-12.6-7.3-19.3l431.3-384.1c16.6-14.6,42.9-3.3,43.2,19l7.6,415.7h0.7
		c1.3,21.6,19,38.9,40.9,38.9c22.3,0,40.6-18.3,41.2-40.6h0.3l-6.7-385.1c-0.3-15,19-21.6,27.9-9.6l306.3,409.7l0.3-0.3
		c7.6,8.6,18.6,14.6,30.9,14.6c23.3,0,41.9-19,41.9-41.9c0-8.3-3-15.6-7-22l0.7-0.7l-271-362.2c-9-12.3,4.7-28.6,18.3-21.9
		l881,438.3c5,2.3,10.6,3.7,16.6,3.7c23.3,0,41.9-18.6,41.9-41.9c0-15.3-8.6-28.3-21-35.6v-0.3l-2.7-1.3c-1-0.7-2-1-3-1.7
		L1633.1,866.5c-24.3-12-53.5-8-73.8,10l-617.2,549.7c-2,1.7-4.7,2.7-7.3,2.7H823.3c-87.1,0-157.6,70.5-157.6,157.6v409.7
		c0,86.8,70.5,157.6,157.6,157.6h423c86.8,0,157.6-70.8,157.6-157.6c0-6.3,5-11,11-11h2241.2
		C3755.3,1985.3,3793.2,1855.6,3709.4,1802.4 M1320.5,1996.3c0,40.9-33.3,74.2-74.2,74.2h-423c-41.2,0-74.5-33.3-74.5-74.2v-409.7
		c0-41.2,33.3-74.2,74.5-74.2h423c40.9,0,74.2,32.9,74.2,74.2V1996.3z M3672.8,1901.8H1415c-6,0-11-5-11-11V1692c0-6.3,5-11,11-11
		h1885.7c41.6,0,81.8,11.6,116.7,33.9l261.4,166.6C3688.1,1887.5,3683.8,1901.8,3672.8,1901.8"/>
	<path class="st3" d="M2885.8,2532c-10.6,22.9-7,49.2,9.3,68.8l114.1,137.7c14.6,17.6,37.9,27.9,62.9,27.9h70.2l0.3,84.5l27.9,9.6
		c90.5,31.3,135.4,80.2,126.4,137.4c-8.3,51.5-58.5,97.8-107.8,98.8c-48.2-1-90.1-49.9-108.1-139l-0.7,0.3
		c-2-21.6-19.3-38.6-41.2-38.6c-23.3,0-41.9,19-41.9,41.9c0,4.7,1.3,8.6,2.3,12.6h-0.3c36.9,184.6,141.7,205.9,188.2,205.9
		c1.3,0,2.3,0,3.3,0c89.5-1.7,173.9-77.5,188.2-168.9c5.7-35.3,9.6-150.3-153.3-218.5v-25.9h75.8c25.6,0,49.6-11,64.2-29.6
		l107.8-137.7c15.6-20,18.6-45.2,7.6-67.8c-12.3-25.3-40.2-41.2-71.2-41.6l80.8-363.5c0-0.3,0-0.7,0.3-1l0.7-4.3c1-3.3,2.3-7,2.3-11
		c0-23.3-18.6-41.9-41.9-41.9c-20.6,0-37.2,15.3-40.6,35.3l-1-0.3l-69.2,310.6c-9.6,44.6-49.2,76.2-95.1,76.2h-111.4
		c-45.9,0-85.5-31.6-95.1-76.2l-69.2-310.6l-0.7,0.3c-2.7-20.6-19.6-36.9-40.9-36.9c-23.3,0-41.9,18.6-41.9,41.9
		c0,4.7,1.3,8.6,2.7,12.6h-0.3l81.8,368.8H2958C2926.4,2489.8,2898.1,2506.4,2885.8,2532 M3394.3,2565.2l-62.5,80.5
		c-20,27.6-31.9,33.6-76.2,37.9L3120,2685c-29.6,0.3-57.2-12.6-76.2-35.3l-63.5-77.2L3394.3,2565.2z"/>
	<path class="st3" d="M3652.5,3828.1c-0.3,0-0.3,0-0.3,0H2259.4c-15.3,0-27.6-12.3-27.6-27.6V2112.1h-0.3c0-0.7,0.3-1.3,0.3-2
		c0-22.9-18.6-41.6-41.6-41.6c-22.6,0-41.2,18.6-41.2,41.6c0,0.7,0.3,1.3,0.3,2h-1V2437c0,25.6-31.6,37.2-48.2,18.3l-150.7-171.9
		c-9.3-10.6-9.3-25.9,0-36.6l93.8-107.1l-0.3-0.3c7.6-7.6,12.3-18,12.3-29.3c0-22.9-18.6-41.6-41.6-41.6c-13.3,0-24.6,6.7-32.3,16.6
		l-0.7-0.7l-82.1,93.8c-11,12.6-30.3,12.6-41.2,0l-82.1-93.8l-0.7,0.7c-7.6-10-19-16.6-32.3-16.6c-22.9,0-41.6,18.6-41.6,41.6
		c0,11.3,4.7,21.6,12.3,29.3l-0.3,0.3l94.1,107.4c9,10.3,9,25.9,0,36.3l-151,171.9c-16.6,19.3-48.2,7.3-48.2-18.3v-324.9h-0.7
		c0-0.7,0.3-1.3,0.3-2c0-22.9-18.6-41.6-41.2-41.6c-22.9,0-41.6,18.6-41.6,41.6c0,0.7,0.3,1.3,0.3,2h-0.3v1688.5
		c0,15.3-12.6,27.6-27.6,27.6H709.6c-1,0-1.7-0.3-2.3-0.3c-23.3,0-41.9,18.6-41.9,41.9c0,22.9,18.6,41.6,41.9,41.6h2944.9
		c0,0,0,0,0.3,0c22.6,0,40.9-18.6,40.9-41.6C3693.4,3846.8,3675.2,3828.1,3652.5,3828.1 M1670.8,2564.7l186.6-212.8
		c11-12.3,30.3-12.3,41.2,0l186.6,213.2c9.3,10.3,9.3,25.9,0,36.3l-186.2,213.2c-11,12.6-30.6,12.6-41.6,0l-186.6-213.2
		C1661.8,2590.7,1661.8,2575.4,1670.8,2564.7 M2086.1,3202.6c9,10.3,9,25.6,0.3,35.9L1899.2,3461c-11.3,13-31.3,13-42.2,0
		l-187.2-222.5c-9-10.3-8.6-25.6,0.3-35.9l187.2-214.2c11-12.6,30.6-12.6,41.6,0L2086.1,3202.6z M1607.6,2729
		c0-25.3,31.6-37.2,48.2-18l151,172.3c9,10.3,9,25.9,0,36.3l-151,172.6c-16.6,19-48.2,7.3-48.2-18.3V2729z M1607.6,3731.4v-361.5
		c0-25.6,32.3-37.6,48.9-18l152,180.9c8.6,10.3,8.6,25.3,0,35.6l-152,180.9C1639.8,3768.9,1607.6,3757.3,1607.6,3731.4 M1998,3828.1
		h-240.1c-23.3,0-35.9-27.6-21-45.2l120.1-142.7c11-13,30.9-13,41.9,0l120.1,142.7C2034.3,3800.5,2021.3,3828.1,1998,3828.1
		 M2148.3,3731.4c0,25.9-32.3,37.6-48.6,18l-152.3-180.9c-8.6-10.3-8.6-25.3,0-35.6l152.3-180.6c16.3-20,48.6-8,48.6,17.6V3731.4z
		 M2148.3,3073.9c0,25.6-31.6,37.2-48.2,18.3l-151-172.6c-9-10.3-9-25.9,0-36.3l151-172.3c16.6-19.3,48.2-7.3,48.2,18V3073.9z"/>
	<g class="st4">
		<g>
			<defs>
				<rect id="SVGID_1_" x="665.4" y="3804.9" width="4190.8" height="541.8"/>
			</defs>
			<clipPath id="SVGID_00000079480337882651848290000013263679040768734609_">
				<use xlink:href="#SVGID_1_"  style="overflow:visible;"/>
			</clipPath>
			<path style="clip-path:url(#SVGID_00000079480337882651848290000013263679040768734609_);fill:#E8AB42;" d="M4856.2,4275.6
				c-9.6,101.1-955.5,93.5-2112.8-17C1586,4148.2,655.8,3976.9,665.5,3875.8c9.6-101.1,955.5-93.5,2112.8,17
				C3935.6,4003.2,4865.8,4174.5,4856.2,4275.6"/>
		</g>
	</g>
</g>
</svg>
