<?xml version="1.0" encoding="utf-8"?>
<!-- Generator: Adobe Illustrator 26.0.1, SVG Export Plug-In . SVG Version: 6.00 Build 0)  -->
<svg version="1.1" id="Layer_1" xmlns="http://www.w3.org/2000/svg" xmlns:xlink="http://www.w3.org/1999/xlink" x="0px" y="0px"
	 viewBox="0 0 5000 5000" style="enable-background:new 0 0 5000 5000;" xml:space="preserve">
<style type="text/css">
	.st0{fill:#E8AB42;}
	.st1{fill:#222055;}
</style>
<g>
	<g>
		<path class="st0" d="M410.7,2492.2l524.6-1188.6h331.2l526.2,1188.6h-349.6l-411-1024h132.5l-410.6,1024H410.7z M697.7,2259.4
			l86.7-246.1h580.4l86.7,246.1H697.7z"/>
		<path class="st0" d="M1872.8,2821.3V1570.1h309.1v157.8l-3.6,305.9l16.9,303.9v483.7H1872.8z M2451.6,2507.4
			c-77.9,0-144.9-17.3-200.3-51.8c-55.4-34.5-97.5-87.1-126.4-157.4c-28.9-69.8-43.4-158.2-43.4-264.5c0-111.2,13.6-201.5,40.9-271
			c26.9-69.8,67.8-121.6,122.8-156.1c55-34.5,123.6-51.8,206.3-51.8c83.9,0,160.2,19.7,228.4,59.4c68.6,39.3,122.8,94.7,163,165.4
			c40.1,70.6,60.2,155.3,60.2,254.1c0,95.9-20.1,179.8-60.2,251.3c-40.1,71-94.3,126-163,164.6
			C2611.8,2488.1,2535.5,2507.4,2451.6,2507.4 M2383.8,2250.9c36.1,0,68.6-8.4,97.5-25.7c28.9-16.9,52.2-41.7,69.8-74.7
			c17.3-32.5,26.1-71.8,26.1-116.8c0-49-8.8-89.5-26.1-121.6c-17.7-32.1-40.9-57-69.8-73.9c-28.9-16.9-61.4-25.3-97.5-25.3
			c-36.1,0-68.6,8.4-97.5,25.3c-28.9,16.9-52.2,41.7-69.8,73.9c-17.3,32.1-26.1,72.7-26.1,121.6c0,45,8.8,84.3,26.1,116.8
			c17.7,32.9,40.9,57.8,69.8,74.7C2315.1,2242.5,2347.7,2250.9,2383.8,2250.9"/>
		<rect x="3052.7" y="1232.3" class="st0" width="322.7" height="1260"/>
		<path class="st0" d="M3745.5,1469.9c-60.2,0-108-16.5-143.7-49.4c-35.3-32.9-53.4-73.5-53.4-122.4c0-48.6,18.1-89.1,53.4-121.2
			c35.7-32.1,83.5-48.6,143.7-48.6c58.6,0,106.4,15.7,142.5,46.2c36.1,30.5,54.2,69.4,54.2,117.2c0,51-17.7,93.1-53.4,127.2
			C3853.1,1452.7,3805.3,1469.9,3745.5,1469.9 M3584.2,1569.9h322.7v922h-322.7V1569.9z"/>
		<rect x="4093.6" y="1882.6" class="st0" width="495.7" height="249.7"/>
	</g>
	<g>
		<polygon class="st1" points="778.9,3856.4 778.9,2934.4 414,2934.4 414,2667.8 1478.6,2667.8 1478.6,2934.4 1114.9,2934.4 
			1114.9,3856.4 		"/>
		<path class="st1" d="M1979.4,3871.7c-110,0-205.1-20.5-286.2-61.8c-80.7-41.3-143.7-97.9-188.3-169.8c-45-72.3-67-153.3-67-243.7
			c0-93.1,21.7-175.4,65-247.3c43.8-71.9,103.6-128,180.2-169c76.3-40.5,163.4-61,260.5-61c90.7,0,173,18.9,247.3,57
			c73.9,37.7,133.3,92.3,178.2,163c44.6,70.6,67,157,67,258.9c0,11.2-0.8,24.5-1.6,38.9c-1.2,14.9-2.4,28.5-3.6,40.9h-728.2v-169.8
			h556.8l-122.4,47.4c1.2-40.5-6.4-76.7-22.9-107.6c-16.5-31.3-38.5-55.4-67-72.3c-28.1-17.3-61.4-25.7-100-25.7
			c-39.7,0-74.3,8.4-104,25.7c-29.3,16.9-51.4,40.9-67,72.3c-15.3,30.9-22.9,67.4-22.9,109.2v49.4c0,45.4,9.6,84.3,28.1,117.2
			c18.9,32.9,45.8,57.8,80.7,75.5c34.9,17.7,77.1,26.5,125.6,26.5c46.6,0,85.5-6.8,117.2-19.7c31.7-12.8,63.4-33.3,95.1-60.2
			l168.2,178.2c-43.4,47.4-96.7,83.9-161.4,109.6C2142.4,3858.8,2066.5,3871.7,1979.4,3871.7"/>
		<path class="st1" d="M3055.9,3871.7c-103.2,0-194.3-20.5-273.4-61c-79.1-40.9-141.7-97.1-186.7-169
			c-45.4-71.9-67.8-153.7-67.8-245.3c0-93.1,22.5-175,67.8-246.5c45-71.1,107.6-127.6,186.7-169c79.1-41.3,170.2-61.8,273.4-61.8
			c104,0,194.3,22.5,270.1,67c75.5,45,129.3,106.8,161.4,185.9l-249.7,129.3c-21.7-43-48.2-74.7-79.9-94.3
			c-31.7-19.7-66.2-29.7-103.6-29.7c-37.3,0-71.1,8.4-101.2,25.3c-30.1,17.3-54.2,41.3-72.3,73.1c-18.1,31.7-26.9,71.8-26.9,120.8
			c0,46.2,8.8,85.9,26.9,118.8c18.1,32.9,42.1,57.4,72.3,74.7c30.1,16.9,63.8,25.3,101.2,25.3c37.3,0,71.9-9.6,103.6-29.7
			c31.7-19.7,58.2-51,79.9-94.3l249.7,127.6c-32.1,79.1-85.9,141.3-161.4,185.9C3250.2,3849.2,3159.8,3871.7,3055.9,3871.7"/>
		<path class="st1" d="M4205.4,2919.1c71.4,0,136.1,14.9,193.5,44.2c57.8,29.3,103.6,74.3,136.9,134.1
			c33.3,60.2,50.2,137.7,50.2,232.8v526.2h-324.3v-473.7c0-65.8-13.6-113.6-40.1-143.3c-26.5-30.1-62.6-45.4-107.6-45.4
			c-35.3,0-67,7.6-95.1,22.9c-28.5,15.7-50.6,38.9-66.2,70.6c-16.1,31.7-23.7,73.5-23.7,125.6v443.2h-322.7v-1260h322.7v601.3
			l-75.1-76.7c35.3-65.4,83.5-115.6,144.5-150.1C4059.3,2936.3,4128.4,2919.1,4205.4,2919.1"/>
		<polygon class="st0" points="4327.2,2708.9 4327.2,2623 4293.1,2623 4293.1,2598.5 4392.2,2598.5 4392.2,2623 4358.5,2623 
			4358.5,2708.9 		"/>
		<polygon class="st0" points="4404,2708.9 4404,2598.5 4429.7,2598.5 4475.5,2673.6 4461.9,2673.6 4506.4,2598.5 4532.1,2598.5 
			4532.5,2708.9 4503.6,2708.9 4503.2,2642.3 4508.4,2642.3 4475.1,2698.1 4461,2698.1 4426.9,2642.3 4432.9,2642.3 4432.9,2708.9 
					"/>
	</g>
</g>
</svg>
